<svg width="101" height="100" viewBox="0 0 101 100" fill="none" xmlns="http://www.w3.org/2000/svg">
<rect x="1.33337" y="1" width="98" height="98" rx="49" fill="white"/>
<rect x="1.33337" y="1" width="98" height="98" rx="49" stroke="url(#paint0_linear_450_5360)" stroke-width="2"/>
<g clip-path="url(#clip0_450_5360)">
<path d="M64.9044 30.6172C70.66 31.2934 75.8205 33.8729 79.7154 37.6981C84.2797 42.1821 87.1026 48.3775 87.1026 55.2189C87.1026 62.0615 84.2803 68.2569 79.7154 72.7415C75.1505 77.2261 68.8442 79.9999 61.8791 79.9999C54.9139 79.9999 48.6088 77.2261 44.0439 72.7415C39.479 68.2569 36.6561 62.0615 36.6561 55.2189C36.6561 48.3769 39.4795 42.1821 44.0439 37.6981C48.2251 33.5905 53.8685 30.9182 60.1394 30.4983V26.342C60.1394 26.2788 60.1429 26.2167 60.1477 26.1547H55.4228C54.6477 26.1547 54.0149 25.5318 54.0149 24.771V21.3836C54.0149 20.6227 54.6477 19.9999 55.4228 19.9999H69.6216C70.3967 19.9999 71.0307 20.6227 71.0307 21.3836V24.771C71.0307 25.5324 70.3967 26.1547 69.6216 26.1547H64.8967C64.9026 26.2161 64.905 26.2788 64.905 26.342L64.9044 30.6172ZM63.905 51.5178C65.2456 52.2271 66.1565 53.6189 66.1565 55.2195C66.1565 57.5404 64.2415 59.4228 61.8791 59.4228C59.5166 59.4228 57.6016 57.5404 57.6016 55.2195C57.6016 53.6189 58.5137 52.2271 59.8543 51.5178V41.8887C59.8543 40.7897 60.7604 39.899 61.8791 39.899C62.9977 39.899 63.905 40.7897 63.905 41.8887V51.5178ZM20.7796 69.0607C19.6609 69.0607 18.7542 68.1693 18.7542 67.0704C18.7542 65.9714 19.6609 65.0812 20.7796 65.0812H32.2187C33.3373 65.0812 34.2435 65.9714 34.2435 67.0704C34.2435 68.1693 33.3367 69.0607 32.2187 69.0607H20.7796ZM16.5901 57.3612C15.4714 57.3612 14.5653 56.471 14.5653 55.372C14.5653 54.2731 15.472 53.3817 16.5901 53.3817H29.8409C30.9589 53.3817 31.8657 54.2731 31.8657 55.372C31.8657 56.471 30.9589 57.3612 29.8409 57.3612H16.5901ZM20.6774 45.9656C19.5588 45.9656 18.6526 45.0748 18.6526 43.9765C18.6526 42.8781 19.5594 41.9867 20.6774 41.9867H32.0286C33.1472 41.9867 34.054 42.8775 34.054 43.9765C34.054 45.0754 33.1472 45.9656 32.0286 45.9656H20.6774ZM84.5336 38.1024C85.5123 35.807 85.396 33.4026 83.9952 31.7916C82.314 29.8587 79.275 29.6371 76.4527 30.9971C79.4421 33.0112 82.1564 35.3541 84.5336 38.1024ZM39.2257 38.1024C38.2464 35.807 38.3627 33.4026 39.7635 31.7916C41.4447 29.8587 44.4837 29.6371 47.3059 30.9971C44.3172 33.0112 41.6023 35.3541 39.2257 38.1024ZM76.8518 40.5114C73.0207 36.7471 67.7273 34.4192 61.8796 34.4192C56.0332 34.4192 50.7392 36.7476 46.9081 40.5114C43.0763 44.2751 40.7068 49.4759 40.7068 55.2195C40.7068 60.9643 43.0769 66.1645 46.9081 69.9283C50.7392 73.692 56.0326 76.021 61.8791 76.021C67.7267 76.021 73.0201 73.692 76.8512 69.9283C80.6824 66.1645 83.0536 60.9643 83.0536 55.2189C83.0536 49.4753 80.6829 44.2751 76.8518 40.5114Z" fill="#1A1F36"/>
</g>
<defs>
<linearGradient id="paint0_linear_450_5360" x1="50.3334" y1="0" x2="50.3334" y2="100" gradientUnits="userSpaceOnUse">
<stop stop-color="white"/>
<stop offset="1" stop-color="#1A1F36"/>
</linearGradient>
<clipPath id="clip0_450_5360">
<rect width="72.5373" height="60" fill="white" transform="translate(14.5647 20)"/>
</clipPath>
</defs>
</svg>
