<svg width="100" height="100" viewBox="0 0 100 100" fill="none" xmlns="http://www.w3.org/2000/svg">
<rect x="0.5" y="0.5" width="99" height="99" rx="49.5" fill="#1A1F36"/>
<rect x="0.5" y="0.5" width="99" height="99" rx="49.5" stroke="url(#paint0_linear_450_5350)"/>
<g clip-path="url(#clip0_450_5350)">
<path fill-rule="evenodd" clip-rule="evenodd" d="M32.6041 60.1909L32.5468 63.5052H38.6093C39.8957 63.5052 40.9426 64.5381 40.9426 65.8073V68.1094H40.9166V76.2437C40.9166 77.5129 39.8697 78.5458 38.5832 78.5458H36.2499V68.9367C36.2499 67.986 36.4322 68.1042 35.4999 68.1042H29.5051V68.0888H26.5155C24.5884 68.0888 23.0103 66.5267 23.0103 64.6306V53.2898C23.0103 51.3525 24.6145 49.7699 26.578 49.7699H28.3437C31.1457 49.7699 31.4218 51.0905 32.1301 52.4727L35.1093 53.6289C37.2655 54.5898 36.7134 54.78 38.1822 52.9866L40.0884 50.6588C41.0207 49.1892 45.2968 50.7256 43.7134 53.1921L40.3645 56.9176C39.2134 58.4694 37.6874 58.6853 35.8332 57.9248L32.6093 56.8045L32.6041 60.1909ZM59.6666 34.6882H57.8072V34.5032C57.8072 34.1898 57.8437 33.938 57.9166 33.7427C57.9895 33.5474 58.0937 33.3676 58.2343 33.2083C58.3749 33.049 58.6926 32.7612 59.1874 32.3604C59.4478 32.1446 59.5832 31.9545 59.5832 31.7798C59.5832 31.5999 59.5312 31.4663 59.4218 31.3687C59.3124 31.2711 59.1562 31.2197 58.9426 31.2197C58.7082 31.2197 58.5207 31.2968 58.3645 31.4458C58.2134 31.5948 58.1145 31.862 58.0728 32.2371L56.1822 32.0059C56.2447 31.3224 56.4999 30.7675 56.9426 30.3513C57.3853 29.935 58.0624 29.7244 58.9687 29.7244C59.677 29.7244 60.2499 29.8734 60.6874 30.1611C61.2812 30.5568 61.578 31.0809 61.578 31.7438C61.578 32.0161 61.4999 32.2782 61.3489 32.5351C61.1978 32.7869 60.8853 33.1004 60.4114 33.4652C60.0832 33.7221 59.8749 33.9277 59.7916 34.087C59.7082 34.236 59.6666 34.4364 59.6666 34.6882ZM56.9218 27.9772H59.8749H63.6405C63.9947 27.9772 64.3176 28.0389 64.6093 28.1571C64.9009 28.2753 65.1718 28.4551 65.4166 28.7018C65.6614 28.9433 65.8489 29.2105 65.9687 29.4983C66.0884 29.786 66.1509 30.1046 66.1509 30.454V35.6542C66.1509 36.0037 66.0884 36.3223 65.9687 36.61C65.8489 36.8978 65.6666 37.165 65.4166 37.4065C65.1666 37.648 64.8957 37.833 64.6041 37.9512C64.3124 38.0694 63.9895 38.131 63.6405 38.131H59.9999C59.7239 38.131 59.5051 38.352 59.5051 38.6192C59.5051 38.6757 59.5155 38.7322 59.5364 38.7836C59.6197 39.1074 59.7187 39.4259 59.828 39.7343C59.9426 40.058 60.0676 40.3714 60.203 40.6695C60.2707 40.8236 60.3489 40.9727 60.4374 41.1217C59.9634 40.9161 59.5155 40.6746 59.1041 40.4074C58.6666 40.1248 58.2655 39.8113 57.8905 39.4671C57.5155 39.1176 57.1718 38.7374 56.8593 38.3263C56.7603 38.1978 56.6145 38.131 56.4634 38.131H54.4739C54.1249 38.131 53.802 38.0694 53.5103 37.9512C53.2187 37.833 52.9478 37.648 52.6978 37.4065C52.453 37.165 52.2655 36.8978 52.1457 36.61C52.0259 36.3223 51.9634 36.0037 51.9634 35.6542V30.454C51.9634 30.1046 52.0259 29.786 52.1457 29.4983C52.2655 29.2105 52.4478 28.9433 52.6978 28.7018C52.9426 28.4603 53.2134 28.2753 53.5051 28.1571C53.7968 28.0389 54.1197 27.9772 54.4739 27.9772H56.9218ZM59.8801 27.0009H56.927H54.4791C53.9999 27.0009 53.552 27.0831 53.1353 27.2527C52.7187 27.4223 52.3437 27.6741 52.0051 28.0081C51.6666 28.3421 51.4114 28.7172 51.2395 29.1231C51.0676 29.5342 50.9791 29.9761 50.9791 30.4489V35.6491C50.9791 36.1219 51.0676 36.5638 51.2395 36.9749C51.4114 37.3859 51.6666 37.7559 52.0051 38.0951C52.3437 38.4291 52.7239 38.6809 53.1405 38.8504C53.5572 39.02 54.0051 39.1074 54.4791 39.1074H56.2291C56.5364 39.4927 56.8645 39.8473 57.2187 40.1762C57.6353 40.5616 58.0884 40.911 58.5676 41.2244C59.052 41.5379 59.5676 41.8154 60.1093 42.0466C60.6562 42.283 61.2343 42.4783 61.8437 42.6324C62.0155 42.6787 62.2082 42.6273 62.3384 42.4834C62.5207 42.283 62.4999 41.9747 62.2968 41.7948C62.0103 41.543 61.7707 41.2912 61.5728 41.0395C61.3801 40.7928 61.2291 40.541 61.1093 40.2789V40.2738C60.9791 39.9912 60.8645 39.7086 60.7655 39.4157C60.7291 39.3129 60.6926 39.2101 60.6614 39.1022H63.6457C64.1249 39.1022 64.5676 39.0149 64.9843 38.8453C65.4009 38.6757 65.7812 38.4239 66.1197 38.0899C66.4582 37.7559 66.7134 37.3808 66.8853 36.9697C67.0572 36.5586 67.1405 36.1167 67.1405 35.644V30.454C67.1405 29.9813 67.0572 29.5394 66.8853 29.1283C66.7134 28.7172 66.4582 28.3472 66.1197 28.0132C65.7812 27.6792 65.4009 27.4274 64.9895 27.2578C64.5728 27.0883 64.1249 27.0009 63.6457 27.0009H59.8801ZM57.7447 35.3254H59.7343V36.5895H57.7447V35.3254ZM34.9895 29.5856C35.5884 29.5856 36.0728 30.0635 36.0728 30.6544C36.0728 31.2454 35.5884 31.7233 34.9895 31.7233C34.3905 31.7233 33.9062 31.2454 33.9062 30.6544C33.9062 30.0635 34.3905 29.5856 34.9895 29.5856ZM43.8072 29.5856C44.4062 29.5856 44.8905 30.0635 44.8905 30.6544C44.8905 31.2454 44.4062 31.7233 43.8072 31.7233C43.2082 31.7233 42.7239 31.2454 42.7239 30.6544C42.7239 30.0635 43.2082 29.5856 43.8072 29.5856ZM39.3957 29.5856C39.9947 29.5856 40.4791 30.0635 40.4791 30.6544C40.4791 31.2454 39.9947 31.7233 39.3957 31.7233C38.7968 31.7233 38.3124 31.2454 38.3124 30.6544C38.3124 30.0635 38.802 29.5856 39.3957 29.5856ZM43.8176 24C45.9843 24 47.7134 25.706 47.7134 27.8436V33.0593C47.7134 35.1969 45.9843 36.9081 43.8176 36.9081H41.328C39.7239 38.9172 37.5572 40.1967 35.0728 40.8339C34.8801 40.8853 34.6666 40.8236 34.5259 40.6695C34.3228 40.4434 34.3489 40.1042 34.5728 39.9038C35.6197 38.9892 35.9999 38.167 36.3957 36.9081H34.9791C33.4062 36.9081 31.9739 35.978 31.3697 34.5392C31.177 34.0818 31.0832 33.5885 31.0832 33.0593V27.8436C31.0832 25.7111 32.8176 24 34.9791 24C38.2187 24 40.578 24 43.8176 24ZM80.0832 76.3876C80.0624 76.2437 80.0051 76.1101 79.8905 76.0022C78.3957 74.5223 76.3593 73.6898 74.2707 73.4792L74.4478 71.6036H80.7759C81.4322 71.6036 81.9739 71.0692 81.9739 70.4217C81.9739 65.5195 80.802 61.8352 81.9739 56.2599C82.3176 54.6052 78.8645 54.3689 78.8645 56.3472V68.9058H66.8957C66.2395 68.9058 65.6978 69.7794 65.6978 70.4269V71.3467C65.6978 71.4905 65.8176 71.6087 65.9634 71.6087H72.3124L72.5572 73.4535C70.4791 73.5871 68.4114 74.3424 66.8593 75.7401C66.6666 75.9148 66.5989 76.1718 66.6562 76.403C66.3437 76.6291 66.1457 76.8603 66.1457 77.4153C66.1457 77.9703 66.7187 78.6742 67.4218 78.6742C68.1249 78.6742 68.6978 77.9703 68.6978 77.4153C68.6978 76.8603 68.4895 76.6291 68.177 76.3979C69.5259 75.3702 71.2082 74.8357 72.9062 74.7844L73.0468 76.1461C73.0624 76.3054 72.1197 76.3568 72.1197 77.4204C72.1197 78.0576 72.6926 78.6794 73.3957 78.6794C74.0989 78.6794 74.6718 78.0576 74.6718 77.4204C74.6718 76.7884 74.2812 76.3619 73.7499 76.2129L73.8541 74.7998C75.4999 74.9077 77.1718 75.4729 78.4478 76.5212C78.2134 76.7473 78.0676 76.8963 78.0676 77.4153C78.0676 77.9343 78.6405 78.6742 79.3437 78.6742C80.0468 78.6742 80.6197 77.9703 80.6197 77.4153C80.6145 76.8501 80.4062 76.6137 80.0832 76.3876ZM69.8749 38.8967C67.1822 38.8967 64.9895 41.0549 64.9895 43.7115C64.9895 46.3681 67.177 48.5263 69.8749 48.5263C72.5676 48.5263 74.7551 46.3681 74.7551 43.7115C74.7499 41.0549 72.5676 38.8967 69.8749 38.8967ZM67.8384 57.786L67.9322 63.5001H61.8749C60.5884 63.5001 59.5416 64.5329 59.5416 65.8022V68.1042H59.5676V76.2386C59.5676 77.5078 60.6145 78.5406 61.9009 78.5406H64.2343V68.762C64.2343 67.7497 64.6197 68.1042 65.7759 68.1042H70.9843V68.0888H73.9739C75.9062 68.0888 77.4791 66.5267 77.4791 64.6306V52.6166C77.4791 50.6794 75.8749 49.0967 73.9114 49.0967H72.1457C68.4739 49.0967 69.0572 51.5941 67.427 53.1613C65.8228 54.708 66.2239 54.8879 64.0312 54.8879H59.302C56.4791 54.8879 55.7916 58.526 59.8072 58.526H64.1405C66.078 58.5311 66.2447 58.8343 67.8384 57.786ZM61.7395 59.2711C54.1301 59.2711 45.8957 59.2711 38.2864 59.2711C38.1718 59.2711 38.078 59.3635 38.078 59.4715V62.4004C38.078 62.5135 38.1718 62.6008 38.2864 62.6008C42.2603 62.6008 44.3384 62.6008 48.3176 62.6008V79.7122C48.3176 79.8613 48.4426 79.9846 48.5937 79.9846H52.3228C52.4739 79.9846 52.5989 79.8613 52.5989 79.7122V62.6163C55.2239 62.6163 59.1145 62.6163 61.7395 62.6163C61.8489 62.6163 61.9426 62.5238 61.9426 62.4159V59.4869C61.9426 59.3687 63.3124 59.2813 63.203 59.2813H61.7395V59.2711ZM18.6457 56.9381H20.3489C20.6978 56.9381 20.927 57.2259 20.9791 57.5599C21.6197 61.5629 21.9739 65.5606 21.953 69.5533H33.5937C34.0572 69.5533 34.427 69.9233 34.427 70.3755V72.0404H33.7603V79.6917C33.7603 79.8304 33.6457 79.9435 33.5051 79.9435H31.2707C31.1301 79.9435 31.0155 79.8304 31.0155 79.6917V75.9868H21.4947C21.3541 77.1173 21.1822 78.2426 20.9791 79.3731C20.9166 79.7122 20.6926 79.9949 20.3489 79.9949H18.6457C18.302 79.9949 17.9166 79.702 18.0155 79.3731C20.2603 71.6704 19.7916 65.0057 18.0155 57.5599C17.9322 57.2259 18.302 56.9381 18.6457 56.9381ZM31.0207 74.8409V72.0455H21.9166C21.8645 73.6076 21.7551 73.2839 21.5832 74.8409H31.0207ZM28.2291 38.7271C30.9218 38.7271 33.1093 40.8853 33.1093 43.5419C33.1093 46.1986 30.9218 48.3568 28.2291 48.3568C25.5364 48.3568 23.3489 46.1986 23.3489 43.5419C23.3489 40.8853 25.5312 38.7271 28.2291 38.7271Z" fill="white"/>
</g>
<defs>
<linearGradient id="paint0_linear_450_5350" x1="50" y1="0" x2="50" y2="100" gradientUnits="userSpaceOnUse">
<stop stop-color="white"/>
<stop offset="0.730769" stop-color="#1A1F36"/>
</linearGradient>
<clipPath id="clip0_450_5350">
<rect width="64" height="56" fill="white" transform="translate(18 24)"/>
</clipPath>
</defs>
</svg>
