<svg width="101" height="100" viewBox="0 0 101 100" fill="none" xmlns="http://www.w3.org/2000/svg">
<rect x="1.33337" y="1" width="98" height="98" rx="49" fill="white"/>
<rect x="1.33337" y="1" width="98" height="98" rx="49" stroke="url(#paint0_linear_450_5369)" stroke-width="2"/>
<path d="M41.3828 58.9289C40.7089 58.9289 40.1669 58.2795 40.1669 57.4786C40.1669 56.6778 40.7138 56.0283 41.3828 56.0283H48.0386C48.7125 56.0283 49.2545 56.6778 49.2545 57.4786C49.2545 58.2795 48.7076 58.9289 48.0386 58.9289H41.3828ZM64.163 52.9177C67.9035 52.9177 71.2876 54.4315 73.7389 56.8829C76.1903 59.3343 77.7041 62.7183 77.7041 66.4589C77.7041 70.1994 76.1903 73.5835 73.7389 76.0348C71.2876 78.4862 67.9035 80 64.163 80C60.4224 80 57.0383 78.4862 54.587 76.0348C52.1356 73.5835 50.6218 70.1994 50.6218 66.4589C50.6218 62.7183 52.1356 59.3343 54.587 56.8829C57.0383 54.4315 60.4224 52.9177 64.163 52.9177ZM63.1277 60.1253C63.1277 59.4563 63.6697 58.9143 64.3387 58.9143C65.0077 58.9143 65.5498 59.4563 65.5498 60.1253V66.4344L70.267 69.2276C70.8432 69.5646 71.0336 70.3068 70.6918 70.883C70.3549 71.4593 69.6126 71.6497 69.0364 71.3079L63.7869 68.1973C63.3963 67.9971 63.1277 67.5918 63.1277 67.1181V60.1253ZM72.0298 58.5969C70.0179 56.585 67.2345 55.3398 64.163 55.3398C61.0914 55.3398 58.308 56.585 56.2961 58.5969C54.2842 60.6088 53.039 63.3922 53.039 66.4637C53.039 69.5353 54.2842 72.3187 56.2961 74.3306C58.308 76.3425 61.0914 77.5877 64.163 77.5877C67.2345 77.5877 70.0179 76.3425 72.0298 74.3306C74.0417 72.3187 75.2869 69.5353 75.2869 66.4637C75.2869 63.3922 74.0417 60.6088 72.0298 58.5969ZM43.8683 73.686C44.6692 73.686 45.3186 74.3355 45.3186 75.1363C45.3186 75.9372 44.6692 76.5866 43.8683 76.5866H25.7126C24.7847 76.5866 23.94 76.2057 23.3247 75.5953C22.7143 74.9849 22.3334 74.1401 22.3334 73.2123V23.3792C22.3334 22.4465 22.7143 21.6066 23.3247 20.9913C23.9351 20.3809 24.7799 20 25.7126 20H67.171C68.0988 20 68.9436 20.3809 69.5589 20.9913C70.1693 21.6017 70.5502 22.4465 70.5502 23.3792V46.467C70.5502 47.2678 69.9007 47.9173 69.0999 47.9173C68.299 47.9173 67.6496 47.2678 67.6496 46.467V23.3792C67.6496 23.2522 67.5958 23.135 67.5079 23.0471C67.4201 22.9592 67.3029 22.9055 67.1759 22.9055H25.7126C25.5856 22.9055 25.4635 22.9592 25.3805 23.0471C25.2877 23.1301 25.234 23.2473 25.234 23.3792V73.2123C25.234 73.3393 25.2877 73.4614 25.3756 73.5444C25.4635 73.6323 25.5807 73.686 25.7077 73.686H43.8683ZM31.6701 55.3984H35.3081C35.5718 55.3984 35.7866 55.6133 35.7866 55.8769V59.5149C35.7866 59.7786 35.5718 59.9935 35.3081 59.9935H31.6701C31.4064 59.9935 31.1915 59.7786 31.1915 59.5149V55.8769C31.1964 55.6084 31.4113 55.3984 31.6701 55.3984ZM31.6701 30.494H35.3081C35.5718 30.494 35.7866 30.7089 35.7866 30.9726V34.6106C35.7866 34.8743 35.5718 35.0891 35.3081 35.0891H31.6701C31.4064 35.0891 31.1915 34.8743 31.1915 34.6106V30.9726C31.1964 30.7089 31.4113 30.494 31.6701 30.494ZM41.3828 34.0246C40.7089 34.0246 40.1669 33.3751 40.1669 32.5743C40.1669 31.7734 40.7138 31.124 41.3828 31.124H58.6986C59.3725 31.124 59.9146 31.7734 59.9146 32.5743C59.9146 33.3751 59.3676 34.0246 58.6986 34.0246H41.3828ZM33.1595 47.4143C32.8469 47.6634 32.3977 47.5999 32.0803 47.2923C32.0461 47.2678 32.0119 47.2385 31.9777 47.2044L30.4542 45.632C30.1367 45.2999 30.21 44.7481 30.6202 44.3965C31.0304 44.0449 31.6212 44.0254 31.9435 44.3575L32.7737 45.212L35.4448 43.0634C35.8013 42.7753 36.3482 42.9023 36.6607 43.3417C36.9732 43.7812 36.9342 44.3721 36.5777 44.6602L33.1595 47.4143ZM40.5819 46.1984C39.908 46.1984 39.366 45.549 39.366 44.7481C39.366 43.9473 39.9129 43.2978 40.5819 43.2978H57.8978C58.5717 43.2978 59.1137 43.9473 59.1137 44.7481C59.1137 45.549 58.5668 46.1984 57.8978 46.1984H40.5819Z" fill="#1A1F36"/>
<defs>
<linearGradient id="paint0_linear_450_5369" x1="50.3334" y1="0" x2="50.3334" y2="100" gradientUnits="userSpaceOnUse">
<stop stop-color="white"/>
<stop offset="1" stop-color="#1A1F36"/>
</linearGradient>
</defs>
</svg>
