<svg width="101" height="100" viewBox="0 0 101 100" fill="none" xmlns="http://www.w3.org/2000/svg">
<rect x="1.66663" y="1" width="98" height="98" rx="49" fill="white"/>
<rect x="1.66663" y="1" width="98" height="98" rx="49" stroke="url(#paint0_linear_450_5379)" stroke-width="2"/>
<g clip-path="url(#clip0_450_5379)">
<path d="M75.0954 41.6089C74.7097 40.674 75.1491 39.5966 76.0817 39.2079C77.0095 38.8192 78.0788 39.262 78.4645 40.2017C79.1872 41.9434 79.7438 43.7589 80.1149 45.6384C80.4811 47.4736 80.6716 49.3727 80.6716 51.3161C80.6716 58.6765 77.9372 65.3924 73.4352 70.4945C68.8845 75.6507 62.527 79.1538 55.3591 79.9951C54.3581 80.1083 53.4548 79.385 53.3376 78.3764C53.2253 77.3678 53.9431 76.4576 54.944 76.3395C61.1891 75.6064 66.736 72.5511 70.7106 68.0492C74.6364 63.6015 77.0192 57.7417 77.0192 51.3161C77.0192 49.6187 76.8532 47.9606 76.5358 46.3567C76.2038 44.6987 75.7204 43.1144 75.0954 41.6089ZM62.3171 44.3838C62.3073 44.4428 62.2829 44.5019 62.2536 44.556C62.2145 44.6888 62.1852 44.8413 62.1755 45.0135C62.1755 45.0283 62.1755 45.048 62.1755 45.0627L61.4186 56.2313C61.5358 56.5904 61.6921 56.8659 61.8874 57.0431C62.0681 57.2103 62.2975 57.2989 62.5856 57.3087C62.6052 57.3087 62.6296 57.3087 62.6491 57.3087L65.8278 57.5301C65.8327 57.5301 65.8425 57.5301 65.8522 57.5301C66.3454 57.5892 66.7116 57.4809 66.9704 57.2202C67.2634 56.925 67.4538 56.4281 67.5563 55.754V55.7442L69.2067 45.7368C69.2067 45.722 69.2067 45.7023 69.2116 45.6876C69.319 45.1218 69.2165 44.738 68.9528 44.5019C68.6452 44.2312 68.1227 44.0886 67.4294 44.0394C67.4147 44.0394 67.4001 44.0394 67.3806 44.0394L63.8015 43.7934V43.7884C63.2546 43.7491 62.8444 43.8327 62.5856 44.0394C62.4684 44.1279 62.3854 44.2411 62.3171 44.3838ZM57.9763 56.4969C57.903 56.4182 57.8591 56.3198 57.8395 56.2116L53.362 46.5978C52.8591 45.6039 52.3513 45.5449 51.8337 45.8057C51.4675 45.9926 51.0768 46.3075 50.6813 46.6224C50.4421 46.8143 50.2077 47.0012 50.0075 47.1488L49.0798 47.818L49.0749 47.8229C48.4011 48.2952 47.6638 48.5265 46.9753 48.5363C46.5212 48.5461 46.0915 48.4576 45.7057 48.2755C45.3102 48.0935 44.9684 47.8229 44.7243 47.4637C44.4606 47.08 44.2995 46.6027 44.2897 46.0566C44.2897 46.0566 44.4118 45.7171 44.4362 45.6925L47.4538 42.5437C46.8679 42.4945 46.3405 42.5387 45.8425 42.6568C45.0807 42.8389 44.3581 43.198 43.5671 43.6704C43.4743 43.7343 43.362 43.7638 43.2448 43.7589L40.0319 43.5375L39.6169 49.6531L39.363 53.5646L41.2331 53.6925C41.4138 53.7023 41.5798 53.8106 41.6579 53.9828L43.7038 58.2239C44.0016 58.8438 44.2653 59.3752 44.6169 59.7392C44.944 60.0836 45.3932 60.31 46.1013 60.3789C46.3649 60.4035 46.6237 60.3789 46.8679 60.2952C47.0192 60.246 47.1706 60.1722 47.322 60.0738L46.0085 57.1365C45.8913 56.8758 46.0085 56.5707 46.2673 56.4576C46.5261 56.3395 46.8288 56.4576 46.9411 56.7183L48.3669 59.9164C48.9528 60.2706 49.4997 60.4035 50.0026 60.3346C50.4616 60.2657 50.9059 60.0246 51.3405 59.6064L49.236 55.7146C49.1042 55.4686 49.1921 55.1538 49.4411 55.016C49.6852 54.8832 49.9977 54.9717 50.1345 55.2226L52.3513 59.321C52.7761 59.5326 53.1911 59.6015 53.5964 59.5178C53.9821 59.4391 54.3825 59.2177 54.7878 58.8487L52.8298 54.4256C52.7126 54.1648 52.8298 53.8549 53.0886 53.7417C53.3474 53.6236 53.655 53.7417 53.7673 54.0074L55.7985 58.583C56.0915 58.7798 56.4382 58.8487 56.7751 58.8192C57.0729 58.7897 57.3659 58.6814 57.61 58.5142C57.8444 58.3518 58.0397 58.1304 58.1374 57.8745C58.2497 57.5941 58.2643 57.2595 58.1374 56.8856L57.9763 56.4969ZM60.5397 56.8118L59.1774 56.7183C59.3239 57.2743 59.28 57.786 59.1042 58.2337C58.9235 58.6913 58.6013 59.0701 58.2057 59.3456C57.82 59.6113 57.361 59.7835 56.8825 59.8278C56.4186 59.8721 55.945 59.7983 55.5104 59.5818C54.9587 60.0886 54.3874 60.3936 53.8112 60.5166C53.2302 60.6347 52.654 60.5609 52.0827 60.3149C51.487 60.8955 50.8474 61.2448 50.1589 61.3432C49.4606 61.4465 48.738 61.2891 47.986 60.8709C47.7321 61.0431 47.4684 61.1759 47.195 61.2694C46.8093 61.4022 46.4138 61.4465 46.0036 61.4022C45.0222 61.3038 44.3825 60.9693 43.8893 60.4576C43.4157 59.9705 43.1179 59.3702 42.7809 58.6716L40.8669 54.7011L39.1823 54.583C39.0505 55.0701 38.8503 55.1685 38.5768 55.4834C37.9616 56.1771 37.4294 56.5412 36.4821 56.4871C35.1052 56.4084 32.6638 56.5904 31.8727 55.5375C31.4724 55.0012 31.2331 54.1648 31.1891 52.9496C31.1891 52.9348 31.1891 52.9201 31.1843 52.9053L31.072 43.3702C30.989 42.337 31.2087 41.6236 31.6481 41.1611C32.0925 40.6888 32.7321 40.5068 33.4938 40.5264C33.5182 40.5264 33.5378 40.5264 33.5573 40.5264L37.444 40.7971V40.802C38.1765 40.8413 38.8015 41.0135 39.2604 41.3579C39.6315 41.6335 39.8806 42.0074 39.9929 42.4994L43.1618 42.7159C43.9968 42.2288 44.7682 41.8598 45.6081 41.6531C46.4333 41.4563 47.3073 41.4268 48.3327 41.6236L49.4899 40.4231C49.5095 40.3985 49.529 40.3788 49.5583 40.3592C49.8806 40.0886 50.237 39.877 50.613 39.7097C51.0085 39.5326 51.4284 39.4096 51.863 39.326C52.5515 39.198 53.2692 39.1784 53.9626 39.2374C54.7487 39.3063 55.5056 39.4785 56.155 39.695C57.3952 40.1181 58.4352 40.9643 59.4411 41.786C59.6657 41.968 59.8903 42.155 60.1589 42.3567C60.1686 42.3616 60.1784 42.3715 60.1882 42.3764L61.653 43.5178C61.736 43.4145 61.8337 43.321 61.9411 43.2374C62.4099 42.8684 63.0495 42.7159 63.86 42.77V42.7651L67.4391 43.0111C67.4538 43.0111 67.4684 43.0111 67.4782 43.016C68.3962 43.075 69.1286 43.2964 69.6169 43.7343C70.1589 44.2214 70.3835 44.9201 70.2028 45.8844C70.2028 45.8942 70.1979 45.8991 70.1979 45.909L68.5475 55.9065C68.4157 56.802 68.1276 57.4908 67.6735 57.9483C67.1901 58.4403 66.5505 58.6519 65.735 58.5584L62.5563 58.337H62.5515C61.9997 58.3272 61.5407 58.1451 61.1696 57.8007C60.9157 57.5547 60.7009 57.2202 60.5397 56.8118ZM34.9831 51.1193C35.364 51.1439 35.652 51.4785 35.6276 51.8672C35.6032 52.2509 35.2712 52.5461 34.8854 52.5166C34.5046 52.492 34.2165 52.1574 34.2409 51.7737C34.2653 51.3899 34.5974 51.0898 34.9831 51.1193ZM65.1198 53.1956C65.5007 53.2202 65.7888 53.5547 65.7643 53.9385C65.7399 54.3223 65.4079 54.6175 65.0222 54.588C64.6413 54.5634 64.3483 54.2288 64.3776 53.845C64.402 53.4613 64.7341 53.171 65.1198 53.1956ZM38.6794 48.3887L39.0309 43.2522C39.0505 42.9816 38.8796 42.6421 38.6647 42.4797C38.3815 42.2681 37.9421 42.1599 37.3952 42.1304L33.4938 41.8647C33.1374 41.8401 32.6491 41.909 32.3903 42.1796C32.1511 42.4305 32.0388 42.8881 32.0974 43.6113C32.0974 43.6261 32.0974 43.6408 32.0974 43.6556L32.2097 52.5855V52.6003C32.2438 53.5892 32.4147 54.2337 32.6882 54.6027C32.9323 54.9324 37.0876 55.6064 37.8054 54.7897C38.0886 54.465 38.2546 53.9434 38.3181 53.2546H38.3132L38.6647 48.3788L38.6794 48.3887ZM72.8884 31.941L61.0622 34.0763L63.5134 30.5732C59.778 26.5584 55.6227 25.1169 50.6569 26.6076C55.9206 20.0344 62.9177 20.0246 68.3913 23.5769L70.8864 20L72.8884 31.941ZM39.7927 64.984L37.3415 68.4871C41.0768 72.5019 45.2321 73.9434 50.1979 72.4527C44.9294 79.0209 37.9323 79.0308 32.4587 75.4785L29.9587 79.0554L27.9616 67.1193L39.7927 64.984ZM26.7751 60.1181C27.2145 61.0332 26.8337 62.1304 25.9255 62.5683C25.0173 63.0111 23.9284 62.6273 23.4938 61.7122C22.5759 59.7934 21.863 57.7565 21.3845 55.6212C20.9157 53.54 20.6667 51.3948 20.6667 49.2054C20.6667 41.9975 23.2936 35.3998 27.6393 30.337C32.0388 25.2054 38.2009 21.6531 45.1784 20.6298C46.1745 20.4871 47.0974 21.1857 47.239 22.1894C47.3806 23.1931 46.6872 24.123 45.6911 24.2657C39.6071 25.1562 34.2311 28.2558 30.3884 32.7331C26.6091 37.1513 24.319 42.9028 24.319 49.2054C24.319 51.1488 24.5339 53.0283 24.9343 54.8192C25.3542 56.6642 25.9743 58.4404 26.7751 60.1181Z" fill="#1A1F36"/>
</g>
<defs>
<linearGradient id="paint0_linear_450_5379" x1="50.6666" y1="0" x2="50.6666" y2="100" gradientUnits="userSpaceOnUse">
<stop stop-color="white"/>
<stop offset="1" stop-color="#1A1F36"/>
</linearGradient>
<clipPath id="clip0_450_5379">
<rect width="60" height="60" fill="white" transform="translate(20.6666 20)"/>
</clipPath>
</defs>
</svg>
