<svg width="101" height="100" viewBox="0 0 101 100" fill="none" xmlns="http://www.w3.org/2000/svg">
<rect x="1.66663" y="1" width="98" height="98" rx="49" fill="white"/>
<rect x="1.66663" y="1" width="98" height="98" rx="49" stroke="url(#paint0_linear_450_5389)" stroke-width="2"/>
<path fill-rule="evenodd" clip-rule="evenodd" d="M51.1558 20L54.6489 22.8337L59.0924 22.1208L60.6904 26.3267L64.8964 27.9248L64.1835 32.3683L67.0172 35.8614L64.1835 39.3545L64.8964 43.798L60.6904 45.396L59.0924 49.602L54.6489 48.8891L51.1558 51.7228L47.6627 48.8891L43.2192 49.602L41.6211 45.396L37.4152 43.798L38.1281 39.3545L35.2944 35.8614L38.1281 32.3683L37.4152 27.9248L41.6211 26.3267L43.2192 22.1208L47.6627 22.8337L51.1558 20ZM54.1083 70.3644H67.1241C68.1697 69.3248 69.3162 68.2436 70.4746 67.1446C72.9162 64.8337 75.4647 62.4218 78.0845 59.404C81.0786 55.9525 81.3994 54.7584 82.3083 51.3782C82.4806 50.7426 82.6707 50.0297 82.9202 49.1446L84.4766 43.6733L84.4944 43.6139C85.3261 41.1782 85.3914 39.5683 85.0469 38.6416C84.94 38.3564 84.8033 38.1663 84.6429 38.0653C84.5182 37.9822 84.3518 37.9525 84.1796 37.9703C83.7756 38.0119 83.3182 38.2673 82.9023 38.7248L78.2805 49.7327C78.239 49.8337 78.1796 49.9287 78.1142 50.0119C77.8409 50.505 77.4726 50.9861 76.9974 51.4436L68.7994 60.5861C68.3538 61.0851 67.5875 61.1267 67.0944 60.6812C66.5954 60.2356 66.5538 59.4693 66.9994 58.9762C68.1103 57.7406 76.7241 49.2871 76.2845 47.3921C75.738 45.0574 69.8687 51.0515 69.1677 51.6693L69.1499 51.6871C65.7103 54.9426 64.231 55.7149 61.534 57.1228C60.9697 57.4198 60.3518 57.7406 59.5855 58.1564C59.2825 58.3228 58.9855 58.5248 58.6944 58.7446C58.3855 58.9822 58.0885 59.2257 57.8093 59.4634C56.3835 60.6634 55.635 61.6376 55.2073 62.7129C54.7617 63.8297 54.6013 65.1901 54.3815 67.0554C54.2924 67.804 54.2271 68.5525 54.1736 69.2951C54.1439 69.6574 54.1261 70.0139 54.1083 70.3644ZM48.2033 70.3644H35.1815C34.136 69.3248 32.9895 68.2436 31.8251 67.1446C29.3835 64.8337 26.835 62.4218 24.2152 59.404C21.2211 55.9525 20.9003 54.7584 19.9914 51.3782C19.8192 50.7426 19.6291 50.0297 19.3796 49.1446L17.8231 43.6733L17.8053 43.6139C16.9736 41.1782 16.9083 39.5683 17.2528 38.6416C17.3598 38.3564 17.4964 38.1663 17.6568 38.0653C17.7815 37.9822 17.9479 37.9525 18.1201 37.9703C18.5241 38.0119 18.9815 38.2673 19.3974 38.7248L24.0192 49.7327C24.0607 49.8337 24.1201 49.9287 24.1855 50.0119C24.4588 50.505 24.8271 50.9861 25.3023 51.4436L33.5003 60.5861C33.9459 61.0851 34.7122 61.1267 35.2053 60.6812C35.7043 60.2356 35.7459 59.4693 35.3003 58.9762C34.2013 57.7347 25.5875 49.2812 26.0271 47.3861C26.5736 45.0515 32.4429 51.0455 33.1439 51.6634L33.1617 51.6812C36.6013 54.9366 38.0805 55.7089 40.7776 57.1168C41.3419 57.4139 41.9598 57.7347 42.7261 58.1505C43.0291 58.3168 43.3261 58.5188 43.6172 58.7386C43.9261 58.9762 44.2231 59.2198 44.5023 59.4574C45.9281 60.6574 46.6766 61.6317 47.1043 62.7069C47.5499 63.8238 47.7103 65.1842 47.93 67.0495C48.0192 67.798 48.0845 68.5465 48.138 69.2891C48.1677 69.6574 48.1855 70.0139 48.2033 70.3644ZM32.1518 70.7802C31.9677 70.9941 31.8548 71.2733 31.8548 71.5762V78.7881C31.8548 79.4594 32.4013 80 33.0667 80H49.4508C50.1221 80 50.6627 79.4535 50.6627 78.7881V71.5109C50.6627 70.7386 50.6152 69.9069 50.5617 69.1347C50.5083 68.3446 50.437 67.5604 50.3479 66.7822C50.1103 64.7446 49.932 63.2535 49.3617 61.8218C48.7736 60.3545 47.8291 59.0891 46.0766 57.6099C45.7558 57.3366 45.4291 57.0634 45.0845 56.8079C44.7221 56.5347 44.3301 56.2733 43.8904 56.0297C43.1776 55.6436 42.5122 55.2931 41.9063 54.9723C39.4112 53.6653 38.0449 52.9525 34.831 49.9109C34.8073 49.8871 34.7776 49.8634 34.7538 49.8455L31.6528 47.1069C30.0845 45.2713 26.9776 43.0851 24.7142 45.0693C23.5083 42.2 22.3201 35.9446 18.3756 35.5584C17.6568 35.4871 16.9617 35.6416 16.3558 36.0337C15.7796 36.4079 15.3043 36.9901 15.0073 37.7921C14.4845 39.1881 14.4964 41.3564 15.5182 44.3564L17.0627 49.7921C17.2885 50.5762 17.4845 51.3307 17.6687 51.996C18.6786 55.7683 19.035 57.105 22.4033 60.9782C25.0706 64.0495 27.6845 66.5208 30.1855 68.8911C30.833 69.5208 31.4865 70.1446 32.1518 70.7802ZM34.4687 72.7881C34.6291 72.8238 34.7954 72.8238 34.9617 72.7881H48.233V77.5762H34.2786V72.7881H34.4687ZM70.1598 70.7802C70.3439 70.9941 70.4568 71.2733 70.4568 71.5762V78.7881C70.4568 79.4594 69.9162 80 69.2449 80H52.8667C52.1954 80 51.6548 79.4535 51.6548 78.7881V71.5109C51.6548 71.4693 51.6548 71.4218 51.6607 71.3802C51.6786 70.602 51.7083 69.8475 51.7558 69.1347C51.8093 68.3446 51.8806 67.5604 51.9697 66.7822C52.2073 64.7446 52.3855 63.2535 52.9558 61.8218C53.5439 60.3545 54.4885 59.0891 56.2409 57.6099C56.5617 57.3366 56.8885 57.0634 57.233 56.8079C57.5954 56.5347 57.9875 56.2733 58.4271 56.0297C59.14 55.6436 59.8053 55.2931 60.4112 54.9723C62.9063 53.6653 64.2726 52.9525 67.4865 49.9109C67.5103 49.8871 67.54 49.8634 67.5637 49.8455L70.6647 47.1069C72.233 45.2713 75.34 43.0851 77.6033 45.0693C78.1914 43.6614 80.2231 38.1485 80.9241 37.305C81.7914 36.2653 82.8904 35.6594 83.9419 35.5525C84.6608 35.4812 85.3558 35.6356 85.9617 36.0277C86.538 36.402 87.0132 36.9842 87.3103 37.7861C87.833 39.1822 87.8211 41.3505 86.7994 44.3505L85.2548 49.7861C85.0291 50.5703 84.833 51.3248 84.6489 51.9901C83.639 55.7624 83.2825 57.099 79.9142 60.9723C77.2469 64.0436 74.639 66.5149 72.132 68.8852C71.4786 69.5208 70.8251 70.1446 70.1598 70.7802ZM67.8429 72.7881C67.6825 72.8238 67.5162 72.8238 67.3499 72.7881H54.0786V77.5762H68.033V72.7881H67.8429ZM51.1558 30.2059L52.7895 34.198L57.0964 34.5188L53.8053 37.305L54.833 41.499L51.1617 39.2238L47.4904 41.499L48.5182 37.3109L45.2152 34.5248L49.5221 34.204L51.1558 30.2119V30.2059ZM51.1558 26.897C56.1043 26.897 60.1142 30.9129 60.1142 35.8554C60.1142 40.804 56.0984 44.8139 51.1558 44.8139C46.2073 44.8139 42.1974 40.798 42.1974 35.8554C42.1974 30.9129 46.2073 26.897 51.1558 26.897Z" fill="#1A1F36"/>
<defs>
<linearGradient id="paint0_linear_450_5389" x1="50.6666" y1="0" x2="50.6666" y2="100" gradientUnits="userSpaceOnUse">
<stop stop-color="white"/>
<stop offset="1" stop-color="#1A1F36"/>
</linearGradient>
</defs>
</svg>
