<svg width="64" height="64" viewBox="0 0 64 64" fill="none" xmlns="http://www.w3.org/2000/svg">
<path d="M51.2696 33.9249C51.2766 33.8423 51.2642 33.7592 51.2335 33.6822C51.2027 33.6052 51.1543 33.5365 51.0922 33.4816L49.6734 31.974C49.5807 31.9148 49.473 31.8833 49.363 31.8833C49.253 31.8833 49.1453 31.9148 49.0526 31.974C47.1577 32.77 45.1221 33.1771 43.0667 33.1712C41.4243 33.1767 39.7919 32.9147 38.2337 32.3952C38.1011 32.3507 37.9566 32.358 37.8291 32.4155C37.7017 32.4731 37.6007 32.5767 37.5464 32.7056C36.9685 34.0087 36.2233 35.231 35.3294 36.3415C35.2965 36.4186 35.2795 36.5015 35.2795 36.5853C35.2795 36.6692 35.2965 36.7521 35.3294 36.8292C35.4802 37.3725 35.6653 37.9056 35.8837 38.4254C35.9449 38.5588 36.0565 38.6625 36.1941 38.7136C41.6035 40.7089 48.6314 44.0122 48.6314 54.2326V57.558C48.6424 57.7204 48.6424 57.8834 48.6314 58.0458C48.6203 58.1249 48.6264 58.2055 48.6494 58.282C48.6723 58.3586 48.7116 58.4292 48.7644 58.4892C48.8758 58.6017 49.0273 58.6655 49.1856 58.6665H57.4328C57.7268 58.6665 58.0088 58.5497 58.2166 58.3419C58.4245 58.134 58.5413 57.852 58.5413 57.558V55.6736C58.5413 48.8009 53.7526 47.0939 49.5182 45.5863L48.4318 45.1872C48.2943 45.1361 48.1827 45.0324 48.1215 44.899C48.0557 44.7565 48.0038 44.608 47.9663 44.4556C47.7652 43.5503 47.7652 42.6119 47.9663 41.7066C49.9668 39.594 51.1395 36.8315 51.2696 33.9249Z" fill="#1A1F36"/>
<path d="M25.2865 12.688H25.2904C26.04 12.6837 26.7877 12.7578 27.5219 12.9077C27.0688 14.4159 26.837 15.982 26.8363 17.5571C26.8133 20.0271 27.3564 22.4675 28.4203 24.6919L28.64 25.1343C29.8361 27.4507 31.5743 29.4428 33.7054 30.9429C33.0192 32.478 32.0791 33.8869 30.9213 35.1069L30.808 35.2271L30.7631 35.3862C30.3441 36.8861 30.3435 38.472 30.7611 39.9722V39.9731C30.8498 40.3027 30.9664 40.5919 31.1068 40.8149C31.1763 40.9253 31.2663 41.0417 31.3802 41.1382C31.4637 41.2088 31.5996 41.3 31.7797 41.3364L33.4408 41.8901V41.8911C36.182 42.8757 38.9528 43.8707 41.058 45.6597C43.1158 47.4085 44.5726 49.9516 44.5726 54.144V57.4692C44.5726 57.5864 44.5256 57.6989 44.4427 57.7817C44.3599 57.8645 44.2474 57.9116 44.1302 57.9116H6.44177C6.32463 57.9116 6.21211 57.8646 6.12927 57.7817C6.04651 57.6989 6.00037 57.5864 6.00037 57.4692V54.144C6.00037 49.893 7.4535 47.3454 9.50134 45.6011C11.5969 43.8162 14.3502 42.8322 17.0844 41.8237L17.0853 41.8247L18.7699 41.2261L18.7894 41.2192L18.809 41.2104C19.1961 41.0446 19.4734 40.642 19.6517 40.1167L19.722 39.8843L19.725 39.8765C20.1139 38.3587 20.063 36.7614 19.5795 35.271L19.5668 35.23L19.5472 35.1899L19.4623 35.0356C19.3673 34.8842 19.2478 34.742 19.1429 34.6206C19.0667 34.5323 18.9804 34.4358 18.8929 34.3374C18.8039 34.2372 18.71 34.1301 18.6107 34.0142C18.2167 33.5541 17.7368 32.9407 17.2699 32.0825C16.3384 30.3705 15.4222 27.6227 15.4222 23.106C15.4223 19.4575 16.6789 16.8725 18.5023 15.1948C20.2223 13.6123 22.4946 12.7938 24.8207 12.6978L25.2865 12.688Z" stroke="#1A1F36" stroke-width="1.33333"/>
<path d="M49.6729 27.8505C49.7723 27.7767 49.8928 27.7369 50.0166 27.7369C50.1403 27.7369 50.2608 27.7767 50.3602 27.8505L54.7942 32.2845C55.0003 32.4923 55.2455 32.6572 55.5156 32.7697C55.7858 32.8823 56.0756 32.9402 56.3682 32.9402C56.6609 32.9402 56.9507 32.8823 57.2208 32.7697C57.491 32.6572 57.7362 32.4923 57.9423 32.2845C58.1501 32.0784 58.315 31.8332 58.4276 31.563C58.5401 31.2928 58.5981 31.0031 58.5981 30.7104C58.5981 30.4177 58.5401 30.128 58.4276 29.8578C58.315 29.5876 58.1501 29.3424 57.9423 29.1363L53.5083 24.7024C53.4345 24.603 53.3947 24.4825 53.3947 24.3587C53.3947 24.235 53.4345 24.1145 53.5083 24.0151C55.1034 21.4771 55.7077 18.4405 55.2059 15.4852C54.704 12.5299 53.1311 9.863 50.7875 7.99389C48.444 6.12478 45.4941 5.18443 42.5012 5.35243C39.5083 5.52043 36.6821 6.785 34.5625 8.90464C32.4428 11.0243 31.1783 13.8504 31.0103 16.8433C30.8423 19.8362 31.7826 22.7862 33.6517 25.1297C35.5208 27.4732 38.1877 29.0461 41.143 29.548C44.0983 30.0499 47.1349 29.4456 49.6729 27.8505ZM35.2625 17.5637C35.2625 16.029 35.7176 14.5288 36.5702 13.2527C37.4228 11.9767 38.6347 10.9821 40.0526 10.3949C41.4704 9.80756 43.0306 9.6539 44.5358 9.9533C46.0409 10.2527 47.4236 10.9917 48.5087 12.0769C49.5939 13.1621 50.3329 14.5447 50.6323 16.0499C50.9317 17.555 50.7781 19.1152 50.1908 20.5331C49.6035 21.9509 48.6089 23.1628 47.3329 24.0154C46.0569 24.868 44.5566 25.3231 43.022 25.3231C40.964 25.3231 38.9904 24.5056 37.5352 23.0504C36.08 21.5952 35.2625 19.6216 35.2625 17.5637Z" fill="#1A1F36"/>
</svg>
