<svg width="64" height="64" viewBox="0 0 64 64" fill="none" xmlns="http://www.w3.org/2000/svg">
<path d="M33 57.0832C19.3537 57.0832 8.25 45.9795 8.25 32.3332C8.25 18.687 19.3537 7.58325 33 7.58325C46.6462 7.58325 57.75 18.687 57.75 32.3332C57.75 45.9795 46.6462 57.0832 33 57.0832Z" fill="#1A1F36"/>
<path d="M33 9.80944C45.4087 9.80944 55.5238 19.9245 55.5238 32.3333C55.5238 44.742 45.4087 54.8571 33 54.8571C20.5913 54.8571 10.4762 44.742 10.4762 32.3333C10.4762 19.9245 20.5913 9.80944 33 9.80944ZM33 5.33325C18.0938 5.33325 6 17.427 6 32.3333C6 47.2395 18.0938 59.3333 33 59.3333C47.9062 59.3333 60 47.2395 60 32.3333C60 17.427 47.9062 5.33325 33 5.33325Z" fill="white"/>
<path d="M32.9928 52.5815C21.8328 52.5815 12.7428 43.5028 12.7428 32.3315C12.7428 21.1603 21.8328 12.0815 32.9928 12.0815C44.1528 12.0815 53.2428 21.1603 53.2428 32.3315C53.2428 43.5028 44.1528 52.5815 32.9928 52.5815Z" fill="white"/>
<path d="M32.995 14.3319C42.9175 14.3319 50.9474 22.4094 50.9474 32.3319C50.9474 42.2544 42.9175 50.2843 32.995 50.2843C23.0725 50.2843 15.0426 42.2544 15.0426 32.3319C15.0426 22.4094 23.0725 14.3319 32.995 14.3319ZM32.995 9.80811C20.5638 9.80811 10.4712 19.9007 10.4712 32.3319C10.4712 44.7632 20.5638 54.8557 32.995 54.8557C45.4263 54.8557 55.5188 44.7632 55.5188 32.3319C55.5188 19.9007 45.4263 9.80811 32.995 9.80811Z" fill="#1A1F36"/>
<path d="M33 48.0815C24.315 48.0815 17.25 41.0165 17.25 32.3315C17.25 23.6465 24.315 16.5815 33 16.5815C41.685 16.5815 48.75 23.6465 48.75 32.3315C48.75 41.0165 41.685 48.0815 33 48.0815Z" fill="#1A1F36"/>
<path d="M33.0028 18.7609C40.4503 18.7609 46.479 24.8848 46.479 32.3323C46.479 39.7798 40.4503 45.8085 33.0028 45.8085C25.5553 45.8085 19.5266 39.7798 19.5266 32.3323C19.5266 24.8848 25.5553 18.7609 33.0028 18.7609ZM33.0028 14.2847C23.0578 14.2847 15.0504 22.3873 15.0504 32.3323C15.0504 42.2773 23.0578 50.2847 33.0028 50.2847C42.9478 50.2847 50.9552 42.2773 50.9552 32.3323C50.9552 22.3873 42.9478 14.2847 33.0028 14.2847Z" fill="white"/>
<path d="M33.0072 43.585C26.8085 43.585 21.7572 38.5337 21.7572 32.335C21.7572 26.1362 26.8085 21.085 33.0072 21.085C39.206 21.085 44.2572 26.1362 44.2572 32.335C44.2572 38.5337 39.206 43.585 33.0072 43.585Z" fill="white"/>
<path d="M33.005 23.3344C37.9662 23.3344 42.005 27.3255 42.005 32.2867C42.005 37.248 37.9662 41.3344 33.005 41.3344C28.0437 41.3344 24.005 37.2956 24.005 32.3344C24.005 27.3731 28.0437 23.3344 33.005 23.3344ZM33.005 18.7629C25.5462 18.7629 19.5288 24.8756 19.5288 32.3344C19.5288 39.7931 25.5462 45.8106 33.005 45.8106C40.4637 45.8106 46.4812 39.7931 46.4812 32.3344C46.4812 24.8756 40.4637 18.7629 33.005 18.7629Z" fill="#1A1F36"/>
<path d="M59.9957 5.33325H33.0433V32.2856H46.4719H59.9957V5.33325Z" fill="#1A1F36"/>
<path d="M36.4254 28.913C43.6704 21.668 50.9267 14.4117 58.1717 7.16675" stroke="white" stroke-width="0.225" stroke-miterlimit="10"/>
<path d="M39.5079 30.5871L33.8149 31.5213L34.7492 25.8284L39.5079 30.5871Z" fill="white"/>
<path d="M33.0504 32.2839C41.4429 23.8914 49.7878 15.5466 58.1803 7.15405L33.0504 32.2839Z" fill="#1A1F36"/>
<path d="M59.8741 5.33325H55.4979H37.5216L37.5216 9.80944H55.5216L55.5216 27.8094H59.9979V5.33325H59.8741Z" fill="white"/>
<path d="M50.8549 14.2827H46.474H37.5216V18.7589H46.474V27.8065H50.9502V14.2827H50.8549Z" fill="white"/>
</svg>
